<?xml version="1.0" encoding="utf-8"?>
<!-- Generator: Adobe Illustrator 16.0.0, SVG Export Plug-In . SVG Version: 6.00 Build 0)  -->
<!DOCTYPE svg PUBLIC "-//W3C//DTD SVG 1.1//EN" "http://www.w3.org/Graphics/SVG/1.1/DTD/svg11.dtd">
<svg version="1.1" id="Layer_1" xmlns="http://www.w3.org/2000/svg" xmlns:xlink="http://www.w3.org/1999/xlink" x="0px" y="0px"
	 width="412px" height="412px" viewBox="0 0 412 412" enable-background="new 0 0 412 412" xml:space="preserve">
<path fill="#FFFFFF" stroke="#1F1713" stroke-width="8.5362" stroke-miterlimit="10" d="M398.373,206.001
	c0,105.042-86.129,190.194-192.373,190.194c-106.245,0-192.374-85.152-192.374-190.194C13.626,100.957,99.755,15.804,206,15.804
	C312.244,15.804,398.373,100.957,398.373,206.001z"/>
<g>
	<g>
		<g>
			<path fill="#201813" d="M81.611,226.548v-22.515H51.505v22.515h-1.391V181.77h1.391v20.999h30.106V181.77h1.393v44.778H81.611z"
				/>
			<path fill="#201813" d="M129.045,216.713c-0.591,2.214-1.559,4.142-2.908,5.786c-1.351,1.645-3.11,2.941-5.282,3.891
				c-2.171,0.949-4.839,1.423-7.999,1.423c-3.163,0-5.832-0.474-8.002-1.423c-2.172-0.949-3.931-2.246-5.279-3.891
				c-1.351-1.645-2.321-3.572-2.91-5.786c-0.59-2.214-0.884-4.585-0.884-7.115V181.77h1.391v27.575c0,1.771,0.178,3.658,0.539,5.661
				c0.357,2.003,1.098,3.857,2.214,5.565c1.116,1.706,2.696,3.131,4.744,4.269c2.042,1.139,4.774,1.708,8.189,1.708
				c3.33,0,6.017-0.548,8.064-1.644c2.042-1.098,3.635-2.499,4.775-4.207c1.139-1.707,1.896-3.562,2.276-5.565
				c0.378-2.002,0.568-3.932,0.568-5.787V181.77h1.393v27.828C129.932,212.128,129.637,214.499,129.045,216.713z"/>
			<path fill="#201813" d="M142.706,226.548V181.77h26.12v1.265h-24.728v19.669h23.274v1.266h-23.274v21.313h25.74v1.266H142.706
				L142.706,226.548z"/>
		</g>
		<g>
			<path fill="#1F1713" stroke="#1F1713" stroke-width="0.9484" stroke-miterlimit="10" d="M252.768,178.172
				c4.067,0,7.464,1.065,10.196,3.197v-0.365c0-2.253,0.974-3.38,2.923-3.38c2.011,0,3.013,0.976,3.013,2.923
				c0,0.366-0.051,1.279-0.151,2.74c-0.204,1.219-0.306,2.438-0.306,3.654c0,0.73,0.075,1.797,0.229,3.197
				c0.151,1.4,0.228,2.466,0.228,3.197c0,2.314-0.99,3.472-2.969,3.472c-1.919,0-2.907-0.974-2.968-2.924v-3.015
				c-0.062-1.827-1.112-3.394-3.151-4.704c-2.041-1.308-4.43-1.964-7.171-1.964c-2.802,0-5.146,0.717-7.034,2.147
				c-1.887,1.432-2.83,3.213-2.83,5.343c0,3.898,2.679,6.212,8.038,6.942l5.298,0.731c10.353,1.401,15.528,5.693,15.528,12.878
				c0,4.385-1.67,7.934-5.012,10.643c-3.339,2.708-7.708,4.063-13.114,4.063c-5.038,0-9.41-1.432-13.114-4.292
				c0,0.609,0,1.188,0,1.735c0,2.191-1.035,3.287-3.105,3.287c-2.253,0-3.378-1.247-3.378-3.744c0,0.426,0.181-1.155,0.548-4.75
				c0.121-0.853,0.183-1.704,0.183-2.558c0-1.461-0.123-2.832-0.366-4.11s-0.364-2.284-0.364-3.014c0-2.13,0.974-3.197,2.923-3.197
				c1.277,0,2.084,0.305,2.421,0.912c0.333,0.61,0.529,2.224,0.593,4.842c0.06,2.618,1.429,4.75,4.111,6.395
				c2.677,1.643,6.086,2.466,10.229,2.466c2.984,0,5.448-0.76,7.399-2.283c1.947-1.521,2.923-3.439,2.923-5.753
				c0-4.141-3.289-6.546-9.864-7.217c-6.273-0.669-11.054-1.902-14.341-3.699c-3.288-1.795-4.931-4.947-4.931-9.453
				c0-4.262,1.607-7.719,4.824-10.367C243.421,179.496,247.607,178.172,252.768,178.172z"/>
			<path fill="#1F1713" stroke="#1F1713" stroke-width="0.9484" stroke-miterlimit="10" d="M317.766,226.583
				c-4.992,0-8.068-2.162-9.225-6.485c-3.104,4.568-7.978,6.852-14.614,6.852c-4.934,0-8.875-1.218-11.83-3.655
				c-2.952-2.435-4.429-5.691-4.429-9.772c0-5.054,2.163-8.769,6.485-11.143c1.645-0.914,3.061-1.507,4.247-1.781
				c1.188-0.275,3.577-0.624,7.17-1.052c5.114-0.547,8.449-1.309,10.002-2.283c1.553-0.973,2.328-2.77,2.328-5.389
				c0-2.495-0.866-4.46-2.604-5.892c-1.735-1.431-4.155-2.146-7.26-2.146c-2.742,0-5.298,0.762-7.672,2.282
				c-0.914,0.61-1.373,1.249-1.373,1.919c0,0.244,0.274,0.547,0.822,0.913c0.853,0.61,1.28,1.645,1.28,3.105
				c0,1.22-0.442,2.223-1.326,3.015c-0.882,0.792-1.994,1.187-3.333,1.187c-1.586,0-2.907-0.547-3.975-1.644
				s-1.598-2.435-1.598-4.019c0-3.41,1.689-6.333,5.067-8.769c3.381-2.435,7.476-3.654,12.289-3.654
				c11.08,0,16.623,5.317,16.623,15.95v18.412c0,2.917,0.061,4.649,0.183,5.194c0.365,2.127,1.398,3.191,3.104,3.191
				c2.13,0,3.196-1.934,3.196-5.806v-4.444c0-1.936,0.93-2.904,2.787-2.904c1.98,0,2.969,1.462,2.969,4.384v0.458v5.206
				C326.959,223.66,323.854,226.583,317.766,226.583z M307.627,208.406v-6.485c-1.333,1.219-2.744,2.07-4.23,2.559
				c-1.486,0.487-4.139,0.912-7.959,1.277c-6.913,0.672-10.37,3.229-10.37,7.673c0,2.316,0.836,4.144,2.511,5.481
				c1.674,1.34,3.941,2.01,6.804,2.01c4.08,0,7.294-1.11,9.639-3.334C306.362,215.364,307.565,212.303,307.627,208.406z"/>
			<path fill="#1F1713" stroke="#1F1713" stroke-width="0.9484" stroke-miterlimit="10" d="M355.397,212.791v-5.846
				c0.06-2.497,1.157-3.745,3.289-3.745c2.13,0,3.198,1.401,3.198,4.201c0,6.638-0.847,11.267-2.539,13.884
				c-2.3,3.532-6.079,5.299-11.34,5.299c-4.839,0-8.285-1.553-10.342-4.659c-1.512-2.252-2.269-6.088-2.269-11.508v-21.921
				c0-1.28-0.591-1.919-1.776-1.919h-2.988c-0.996,0-1.823-0.32-2.475-0.959c-0.654-0.64-0.98-1.417-0.98-2.329
				c0-0.853,0.317-1.612,0.958-2.283c0.64-0.669,1.354-1.005,2.146-1.005h3.562c1.035,0,1.553-0.578,1.553-1.735v-9.408
				c0-2.313,1.188-3.471,3.562-3.471c2.194,0,3.289,1.157,3.289,3.471v9.772c0,0.914,0.549,1.37,1.644,1.37h9.956
				c2.313,0,3.473,1.065,3.473,3.196c0,2.254-1.251,3.38-3.745,3.38h-10.047c-0.854,0-1.28,0.639-1.28,1.918v22.469
				c0,6.395,2.13,9.592,6.392,9.592C352.959,220.555,355.213,217.967,355.397,212.791z"/>
		</g>
		<g>
			<path fill="#1F1713" stroke="#1F1713" stroke-width="0.9484" stroke-miterlimit="10" d="M212.003,211.552l7.425-13.394h4.949
				l-9.316,16.451l11.719,12.301H220.3l-7.716-8.298c-2.085,2.815-4.378,5.059-6.878,6.734c-2.501,1.674-5.544,2.511-9.135,2.511
				c-2.185,0-4.234-0.354-6.151-1.055c-1.917-0.703-3.58-1.711-4.986-3.021c-1.409-1.311-2.524-2.886-3.349-4.732
				c-0.826-1.842-1.239-3.904-1.239-6.187c0-1.989,0.339-3.737,1.019-5.24c0.68-1.505,1.567-2.842,2.66-4.005
				c1.09-1.165,2.34-2.22,3.747-3.166c1.408-0.947,2.862-1.88,4.368-2.804c-0.726-0.873-1.469-1.783-2.22-2.729
				c-0.754-0.946-1.42-1.929-2.002-2.947c-0.582-1.02-1.067-2.075-1.457-3.167c-0.389-1.091-0.582-2.221-0.582-3.385
				c0-1.844,0.351-3.494,1.055-4.95c0.704-1.456,1.649-2.681,2.838-3.676c1.188-0.994,2.571-1.759,4.15-2.294
				c1.576-0.533,3.215-0.801,4.915-0.801c1.502,0,2.958,0.268,4.367,0.801c1.406,0.535,2.657,1.273,3.747,2.22
				c1.093,0.946,1.953,2.088,2.585,3.422c0.63,1.336,0.946,2.827,0.946,4.476c0,1.847-0.326,3.446-0.982,4.805
				c-0.655,1.359-1.53,2.573-2.619,3.64c-1.094,1.068-2.319,2.015-3.676,2.839c-1.36,0.827-2.767,1.627-4.224,2.403L212.003,211.552
				z M195.405,200.705c-1.164,0.682-2.318,1.408-3.458,2.185c-1.139,0.776-2.182,1.638-3.128,2.584s-1.711,2.014-2.292,3.201
				c-0.584,1.191-0.875,2.537-0.875,4.04c0,1.65,0.303,3.131,0.912,4.441c0.604,1.31,1.429,2.438,2.473,3.385
				c1.045,0.946,2.281,1.675,3.713,2.184c1.432,0.51,2.948,0.765,4.551,0.765c1.358,0,2.631-0.221,3.821-0.656
				c1.188-0.437,2.293-1.02,3.312-1.747c1.02-0.728,1.968-1.563,2.84-2.512c0.873-0.946,1.675-1.953,2.402-3.021L195.405,200.705z
				 M198.973,178.066c-2.185,0-4.029,0.667-5.534,2.003c-1.504,1.335-2.256,3.093-2.256,5.276c0,0.873,0.18,1.771,0.545,2.693
				c0.365,0.923,0.825,1.82,1.384,2.693c0.557,0.874,1.166,1.699,1.821,2.475c0.655,0.777,1.248,1.481,1.782,2.111
				c1.019-0.534,2.086-1.116,3.204-1.748c1.115-0.63,2.135-1.357,3.058-2.184c0.921-0.824,1.686-1.759,2.293-2.803
				c0.606-1.042,0.909-2.244,0.909-3.603c0-2.039-0.681-3.7-2.039-4.986C202.782,178.71,201.057,178.066,198.973,178.066z"/>
		</g>
	</g>
	<g>
		<path fill="#211915" d="M113.683,261.792c0-0.322,0.114-0.597,0.338-0.822c0.227-0.226,0.5-0.339,0.822-0.339
			s0.598,0.113,0.822,0.339c0.226,0.226,0.339,0.5,0.339,0.822s-0.113,0.598-0.339,0.822c-0.224,0.226-0.5,0.339-0.822,0.339
			s-0.596-0.113-0.822-0.339C113.796,262.387,113.683,262.114,113.683,261.792z"/>
		<path fill="#211915" d="M126.625,245.68h1.596v7.549h9.581v-7.549h1.596v17.127h-1.596v-8.129h-9.581v8.129h-1.596V245.68z"/>
		<path fill="#211915" d="M158.654,258.114c0,0.549,0.002,1.041,0.012,1.477c0.007,0.435,0.021,0.838,0.036,1.209
			c0.016,0.371,0.037,0.717,0.06,1.04c0.025,0.323,0.062,0.646,0.11,0.968h-1.355c-0.096-0.549-0.145-1.153-0.145-1.814h-0.048
			c-0.418,0.726-0.942,1.258-1.562,1.597c-0.62,0.338-1.406,0.507-2.357,0.507c-0.485,0-0.959-0.06-1.43-0.181
			c-0.466-0.121-0.886-0.314-1.257-0.579c-0.371-0.266-0.673-0.609-0.907-1.028c-0.233-0.419-0.351-0.928-0.351-1.525
			c0-0.854,0.218-1.531,0.653-2.03c0.435-0.501,0.971-0.875,1.61-1.125c0.637-0.251,1.312-0.411,2.031-0.484
			c0.716-0.073,1.348-0.109,1.898-0.109h1.692v-0.676c0-0.968-0.297-1.662-0.896-2.081c-0.595-0.418-1.346-0.629-2.249-0.629
			c-1.29,0-2.427,0.42-3.41,1.258l-0.848-0.992c0.533-0.516,1.193-0.906,1.982-1.174c0.791-0.267,1.548-0.399,2.274-0.399
			c1.356,0,2.435,0.318,3.244,0.955c0.807,0.638,1.208,1.666,1.208,3.085v2.733H158.654z M155.751,257.195
			c-0.614,0-1.205,0.04-1.778,0.122c-0.572,0.079-1.088,0.219-1.548,0.411c-0.459,0.193-0.827,0.451-1.101,0.774
			s-0.411,0.726-0.411,1.209c0,0.339,0.076,0.642,0.229,0.907c0.153,0.267,0.351,0.483,0.593,0.653
			c0.24,0.169,0.511,0.298,0.81,0.388c0.298,0.088,0.601,0.132,0.906,0.132c0.774,0,1.411-0.113,1.911-0.339
			c0.5-0.225,0.9-0.52,1.197-0.882c0.297-0.364,0.504-0.774,0.616-1.234c0.115-0.461,0.17-0.924,0.17-1.393v-0.749H155.751
			L155.751,257.195z"/>
		<path fill="#211915" d="M168.814,254.776c0-0.211-0.009-0.465-0.025-0.763s-0.027-0.6-0.036-0.907
			c-0.007-0.304-0.021-0.593-0.037-0.857c-0.015-0.265-0.023-0.471-0.023-0.617h1.452c0.016,0.42,0.027,0.824,0.036,1.212
			c0.007,0.386,0.027,0.637,0.06,0.749h0.073c0.288-0.613,0.773-1.141,1.449-1.585c0.678-0.443,1.468-0.664,2.37-0.664
			c0.873,0,1.581,0.137,2.13,0.411c0.547,0.273,0.98,0.633,1.294,1.076c0.314,0.444,0.531,0.954,0.653,1.535
			c0.122,0.582,0.18,1.18,0.18,1.791v6.653h-1.449v-6.58c0-0.451-0.041-0.891-0.122-1.318c-0.081-0.427-0.221-0.811-0.423-1.149
			c-0.202-0.338-0.483-0.607-0.848-0.81c-0.362-0.201-0.833-0.302-1.416-0.302c-0.531,0-1.035,0.094-1.511,0.278
			c-0.474,0.186-0.886,0.466-1.232,0.846c-0.349,0.379-0.623,0.855-0.822,1.427c-0.204,0.573-0.304,1.246-0.304,2.021v5.59h-1.45
			v-8.037H168.814z"/>
		<path fill="#211915" d="M198.324,260.848h-0.048c-0.224,0.388-0.509,0.722-0.845,1.004c-0.339,0.281-0.706,0.515-1.101,0.701
			c-0.396,0.188-0.811,0.322-1.246,0.411c-0.435,0.09-0.863,0.133-1.283,0.133c-0.855,0-1.644-0.144-2.37-0.435
			c-0.726-0.289-1.346-0.697-1.862-1.222c-0.517-0.523-0.921-1.145-1.209-1.862c-0.29-0.718-0.435-1.504-0.435-2.359
			s0.145-1.641,0.435-2.357c0.289-0.718,0.692-1.34,1.209-1.864c0.515-0.524,1.136-0.93,1.862-1.221s1.516-0.436,2.37-0.436
			c0.418,0,0.848,0.044,1.283,0.132c0.435,0.09,0.85,0.226,1.246,0.411c0.395,0.188,0.762,0.42,1.101,0.703
			c0.336,0.282,0.62,0.616,0.845,1.003h0.048v-9.07h1.452v18.288h-1.452V260.848z M198.471,257.219c0-0.628-0.122-1.222-0.365-1.778
			c-0.24-0.557-0.572-1.041-0.992-1.452c-0.419-0.409-0.911-0.737-1.475-0.979c-0.565-0.241-1.177-0.362-1.839-0.362
			c-0.675,0-1.29,0.121-1.836,0.362c-0.55,0.242-1.017,0.57-1.404,0.979c-0.386,0.413-0.682,0.897-0.884,1.452
			c-0.202,0.557-0.302,1.148-0.302,1.778c0,0.629,0.101,1.223,0.302,1.778c0.202,0.557,0.498,1.04,0.884,1.451
			c0.387,0.411,0.855,0.739,1.404,0.98c0.547,0.241,1.161,0.363,1.836,0.363c0.662,0,1.273-0.122,1.839-0.363
			c0.562-0.241,1.055-0.569,1.475-0.98s0.751-0.895,0.992-1.451C198.35,258.441,198.471,257.848,198.471,257.219z"/>
		<path fill="#211915" d="M209.31,244.52h1.451v9.07h0.049c0.225-0.387,0.508-0.721,0.845-1.003
			c0.339-0.281,0.707-0.516,1.102-0.703c0.396-0.186,0.811-0.32,1.246-0.411c0.436-0.088,0.862-0.132,1.282-0.132
			c0.854,0,1.641,0.145,2.359,0.436c0.717,0.291,1.338,0.696,1.862,1.221s0.932,1.146,1.221,1.864
			c0.291,0.716,0.435,1.502,0.435,2.357s-0.144,1.642-0.435,2.359c-0.289,0.718-0.696,1.339-1.221,1.862
			c-0.524,0.524-1.146,0.933-1.862,1.222c-0.719,0.291-1.505,0.435-2.359,0.435c-0.419,0-0.847-0.043-1.282-0.133
			c-0.436-0.087-0.851-0.224-1.246-0.411c-0.395-0.187-0.763-0.418-1.102-0.701c-0.337-0.282-0.619-0.616-0.845-1.004h-0.049v1.96
			h-1.451V244.52z M210.614,257.219c0,0.629,0.122,1.223,0.364,1.778c0.24,0.557,0.573,1.04,0.993,1.451s0.91,0.739,1.475,0.98
			s1.178,0.363,1.838,0.363c0.679,0,1.291-0.122,1.84-0.363c0.547-0.241,1.015-0.569,1.401-0.98s0.683-0.895,0.884-1.451
			c0.202-0.555,0.303-1.149,0.303-1.778c0-0.63-0.101-1.222-0.303-1.778c-0.201-0.557-0.497-1.041-0.884-1.452
			c-0.387-0.409-0.854-0.737-1.401-0.979c-0.55-0.241-1.161-0.362-1.84-0.362c-0.66,0-1.275,0.121-1.838,0.362
			c-0.562,0.242-1.055,0.57-1.475,0.979c-0.42,0.413-0.753,0.897-0.993,1.452C210.736,255.997,210.614,256.591,210.614,257.219z"/>
		<path fill="#211915" d="M239.379,258.114c0,0.549,0.002,1.041,0.011,1.477c0.007,0.435,0.021,0.838,0.037,1.209
			c0.015,0.371,0.036,0.717,0.06,1.04c0.025,0.323,0.062,0.646,0.109,0.968h-1.355c-0.097-0.549-0.145-1.153-0.145-1.814h-0.048
			c-0.418,0.726-0.941,1.258-1.562,1.597c-0.619,0.338-1.404,0.507-2.356,0.507c-0.485,0-0.958-0.06-1.429-0.181
			c-0.468-0.121-0.887-0.314-1.258-0.579c-0.37-0.266-0.673-0.609-0.905-1.028c-0.234-0.419-0.352-0.928-0.352-1.525
			c0-0.854,0.219-1.531,0.653-2.03c0.436-0.501,0.972-0.875,1.61-1.125c0.637-0.251,1.312-0.411,2.03-0.484
			c0.717-0.073,1.349-0.109,1.898-0.109h1.692v-0.676c0-0.968-0.298-1.662-0.896-2.081c-0.595-0.418-1.347-0.629-2.249-0.629
			c-1.289,0-2.428,0.42-3.41,1.258l-0.848-0.992c0.534-0.516,1.193-0.906,1.982-1.174c0.792-0.267,1.549-0.399,2.273-0.399
			c1.355,0,2.435,0.318,3.244,0.955c0.808,0.638,1.209,1.666,1.209,3.085v2.733H239.379z M236.475,257.195
			c-0.613,0-1.204,0.04-1.777,0.122c-0.573,0.079-1.088,0.219-1.549,0.411c-0.459,0.193-0.826,0.451-1.101,0.774
			s-0.41,0.726-0.41,1.209c0,0.339,0.075,0.642,0.229,0.907c0.153,0.267,0.351,0.483,0.593,0.653
			c0.241,0.169,0.511,0.298,0.812,0.388c0.298,0.088,0.6,0.132,0.906,0.132c0.773,0,1.41-0.113,1.91-0.339
			c0.5-0.225,0.9-0.52,1.197-0.882c0.296-0.364,0.505-0.774,0.614-1.234c0.116-0.461,0.171-0.924,0.171-1.393v-0.749H236.475
			L236.475,257.195z"/>
		<path fill="#211915" d="M260.763,262.083c0,1.387-0.201,2.508-0.605,3.361c-0.403,0.854-0.906,1.516-1.514,1.983
			c-0.604,0.468-1.252,0.782-1.946,0.944c-0.694,0.16-1.322,0.241-1.887,0.241c-0.563,0-1.115-0.053-1.656-0.157
			c-0.54-0.104-1.054-0.259-1.536-0.46c-0.486-0.201-0.924-0.449-1.319-0.737c-0.395-0.291-0.739-0.621-1.026-0.993l1.136-1.064
			c0.515,0.726,1.161,1.258,1.935,1.597c0.774,0.338,1.597,0.509,2.468,0.509c0.742,0,1.367-0.096,1.876-0.291
			c0.508-0.192,0.927-0.447,1.257-0.762s0.589-0.66,0.774-1.041c0.186-0.38,0.321-0.757,0.412-1.137
			c0.087-0.379,0.14-0.737,0.156-1.076c0.016-0.339,0.024-0.613,0.024-0.821v-1.548h-0.048c-0.419,0.675-0.989,1.209-1.706,1.596
			c-0.717,0.386-1.56,0.58-2.528,0.58c-0.822,0-1.597-0.149-2.322-0.448c-0.723-0.298-1.357-0.709-1.897-1.233
			c-0.542-0.525-0.967-1.134-1.284-1.827c-0.313-0.693-0.471-1.436-0.471-2.226c0-0.789,0.158-1.531,0.471-2.225
			c0.317-0.693,0.742-1.298,1.284-1.814c0.54-0.515,1.175-0.927,1.897-1.234c0.726-0.307,1.5-0.46,2.322-0.46
			c0.969,0,1.812,0.194,2.528,0.582c0.717,0.387,1.287,0.918,1.706,1.595h0.048v-1.886h1.452V262.083z M259.359,257.073
			c0-0.611-0.117-1.188-0.351-1.729c-0.233-0.541-0.55-1.008-0.944-1.403c-0.396-0.395-0.863-0.71-1.403-0.944
			c-0.541-0.233-1.115-0.351-1.73-0.351s-1.188,0.117-1.729,0.351s-1.008,0.55-1.403,0.944c-0.395,0.396-0.709,0.862-0.945,1.403
			c-0.233,0.54-0.351,1.115-0.351,1.729c0,0.614,0.118,1.19,0.351,1.731c0.233,0.541,0.551,1.007,0.945,1.402
			c0.396,0.395,0.862,0.71,1.403,0.943c0.541,0.234,1.114,0.351,1.729,0.351s1.189-0.117,1.73-0.351
			c0.54-0.233,1.007-0.549,1.403-0.943c0.395-0.396,0.709-0.861,0.944-1.402C259.242,258.264,259.359,257.688,259.359,257.073z"/>
		<path fill="#211915" d="M270.632,259.952c0.305,0.597,0.757,1.052,1.353,1.368c0.599,0.313,1.227,0.472,1.887,0.472
			c0.308,0,0.613-0.049,0.92-0.146c0.306-0.097,0.579-0.234,0.822-0.411c0.24-0.178,0.438-0.391,0.591-0.642
			c0.153-0.25,0.231-0.536,0.231-0.857c0-0.516-0.167-0.904-0.497-1.161c-0.33-0.259-0.737-0.461-1.221-0.606
			s-1.017-0.269-1.597-0.374c-0.581-0.105-1.113-0.267-1.595-0.483c-0.485-0.219-0.895-0.52-1.224-0.907
			c-0.329-0.387-0.495-0.936-0.495-1.645c0-0.548,0.113-1.023,0.339-1.428c0.225-0.403,0.52-0.737,0.882-1.004
			c0.365-0.266,0.77-0.463,1.221-0.591c0.454-0.13,0.911-0.195,1.382-0.195c0.917,0,1.713,0.171,2.381,0.51
			c0.669,0.338,1.189,0.87,1.56,1.596l-1.305,0.773c-0.274-0.515-0.618-0.905-1.028-1.173c-0.413-0.267-0.949-0.398-1.607-0.398
			c-0.26,0-0.529,0.039-0.81,0.121c-0.284,0.081-0.536,0.193-0.763,0.337c-0.227,0.147-0.416,0.333-0.568,0.559
			c-0.152,0.227-0.23,0.482-0.23,0.773c0,0.501,0.168,0.87,0.496,1.113c0.33,0.241,0.738,0.432,1.221,0.566
			c0.486,0.138,1.018,0.255,1.597,0.351c0.582,0.099,1.113,0.255,1.599,0.472c0.483,0.218,0.891,0.533,1.221,0.944
			c0.33,0.412,0.497,0.997,0.497,1.754c0,0.582-0.109,1.086-0.327,1.512c-0.217,0.427-0.517,0.788-0.896,1.076
			c-0.378,0.291-0.812,0.51-1.294,0.654c-0.483,0.146-0.993,0.218-1.523,0.218c-0.969,0-1.851-0.185-2.651-0.556
			c-0.8-0.371-1.415-0.943-1.851-1.718L270.632,259.952z"/>
		<path fill="#211915" d="M287.25,261.792c0-0.322,0.112-0.597,0.339-0.822c0.224-0.226,0.5-0.339,0.822-0.339
			s0.596,0.113,0.821,0.339c0.227,0.226,0.339,0.5,0.339,0.822s-0.112,0.598-0.339,0.822c-0.226,0.226-0.499,0.339-0.821,0.339
			s-0.599-0.113-0.822-0.339C287.362,262.387,287.25,262.114,287.25,261.792z"/>
	</g>
</g>
</svg>
