<?xml version="1.0" encoding="utf-8"?>
<!-- Generator: Adobe Illustrator 16.0.0, SVG Export Plug-In . SVG Version: 6.00 Build 0)  -->
<!DOCTYPE svg PUBLIC "-//W3C//DTD SVG 1.1//EN" "http://www.w3.org/Graphics/SVG/1.1/DTD/svg11.dtd">
<svg version="1.1" id="Layer_1" xmlns="http://www.w3.org/2000/svg" xmlns:xlink="http://www.w3.org/1999/xlink" x="0px" y="0px"
	 width="412px" height="412px" viewBox="0 0 412 412" enable-background="new 0 0 412 412" xml:space="preserve">
<path fill="#FFFFFF" stroke="#1F1713" stroke-width="7.2795" stroke-miterlimit="10" d="M370.053,206.001
	c0,89.578-73.449,162.194-164.053,162.194S41.947,295.579,41.947,206.001c0-89.58,73.449-162.197,164.053-162.197
	S370.053,116.421,370.053,206.001z"/>
<g>
	<path fill="#201813" d="M103.078,229.587v-19.201H77.404v19.201h-1.186v-38.186h1.186v17.907h25.674v-17.907h1.188v38.186H103.078z
		"/>
	<path fill="#201813" d="M143.529,221.2c-0.504,1.888-1.33,3.532-2.48,4.935c-1.152,1.402-2.652,2.508-4.504,3.317
		c-1.852,0.809-4.127,1.214-6.822,1.214c-2.697,0-4.973-0.405-6.824-1.214c-1.852-0.81-3.352-1.915-4.502-3.317
		c-1.152-1.402-1.979-3.047-2.482-4.935s-0.754-3.91-0.754-6.067v-23.732h1.186v23.516c0,1.51,0.152,3.119,0.459,4.827
		c0.305,1.708,0.936,3.29,1.889,4.746c0.951,1.456,2.299,2.67,4.045,3.641c1.742,0.971,4.072,1.456,6.984,1.456
		c2.84,0,5.131-0.467,6.877-1.402c1.742-0.935,3.1-2.131,4.072-3.587c0.971-1.456,1.617-3.038,1.941-4.746
		c0.322-1.707,0.484-3.353,0.484-4.935v-23.516h1.188v23.732C144.285,217.29,144.033,219.312,143.529,221.2z"/>
	<path fill="#201813" d="M155.178,229.587v-38.186h22.275v1.079h-21.088v16.773h19.848v1.079h-19.848v18.176h21.951v1.079H155.178z"
		/>
</g>
<g>
	<path fill="#1F1713" stroke="#1F1713" stroke-width="0.8088" stroke-miterlimit="10" d="M249.037,188.333
		c3.469,0,6.365,0.909,8.695,2.727v-0.312c0-1.921,0.83-2.882,2.492-2.882c1.715,0,2.57,0.832,2.57,2.493
		c0,0.312-0.043,1.09-0.129,2.337c-0.174,1.039-0.26,2.078-0.26,3.116c0,0.623,0.064,1.532,0.195,2.726
		c0.129,1.195,0.193,2.103,0.193,2.727c0,1.974-0.844,2.96-2.531,2.96c-1.637,0-2.48-0.83-2.531-2.493v-2.571
		c-0.053-1.558-0.949-2.894-2.688-4.011c-1.74-1.116-3.777-1.675-6.115-1.675c-2.389,0-4.389,0.611-5.998,1.831
		c-1.609,1.221-2.414,2.74-2.414,4.557c0,3.324,2.285,5.297,6.855,5.92l4.518,0.623c8.828,1.195,13.242,4.856,13.242,10.983
		c0,3.739-1.424,6.765-4.273,9.075c-2.848,2.31-6.574,3.466-11.184,3.466c-4.297,0-8.025-1.221-11.184-3.661c0,0.52,0,1.013,0,1.48
		c0,1.869-0.883,2.804-2.648,2.804c-1.922,0-2.881-1.064-2.881-3.193c0,0.363,0.154-0.986,0.467-4.051
		c0.104-0.727,0.156-1.453,0.156-2.181c0-1.246-0.105-2.415-0.312-3.506c-0.207-1.09-0.311-1.947-0.311-2.57
		c0-1.816,0.83-2.726,2.492-2.726c1.09,0,1.777,0.26,2.064,0.778c0.285,0.52,0.453,1.896,0.506,4.129
		c0.051,2.233,1.219,4.05,3.506,5.452c2.283,1.402,5.191,2.104,8.723,2.104c2.545,0,4.646-0.649,6.311-1.947
		c1.66-1.298,2.492-2.934,2.492-4.907c0-3.531-2.805-5.582-8.412-6.154c-5.35-0.57-9.426-1.622-12.23-3.154
		c-2.803-1.531-4.205-4.219-4.205-8.062c0-3.634,1.371-6.582,4.115-8.841C241.066,189.463,244.637,188.333,249.037,188.333z"/>
	<path fill="#1F1713" stroke="#1F1713" stroke-width="0.8088" stroke-miterlimit="10" d="M304.467,229.617
		c-4.258,0-6.881-1.843-7.867-5.53c-2.648,3.895-6.803,5.842-12.463,5.842c-4.207,0-7.568-1.039-10.088-3.116
		c-2.518-2.076-3.777-4.854-3.777-8.334c0-4.31,1.844-7.478,5.531-9.503c1.402-0.779,2.609-1.285,3.621-1.519
		c1.014-0.234,3.051-0.532,6.115-0.896c4.361-0.467,7.205-1.116,8.529-1.947c1.324-0.83,1.986-2.362,1.986-4.596
		c0-2.128-0.74-3.803-2.221-5.024c-1.479-1.22-3.543-1.831-6.191-1.831c-2.338,0-4.518,0.65-6.543,1.947
		c-0.779,0.52-1.17,1.065-1.17,1.636c0,0.208,0.234,0.467,0.701,0.779c0.727,0.52,1.092,1.402,1.092,2.648
		c0,1.04-0.377,1.896-1.131,2.571c-0.752,0.675-1.701,1.012-2.842,1.012c-1.352,0-2.48-0.467-3.389-1.402
		c-0.91-0.935-1.363-2.076-1.363-3.427c0-2.908,1.441-5.4,4.322-7.478c2.883-2.076,6.375-3.116,10.479-3.116
		c9.449,0,14.176,4.535,14.176,13.602v15.702c0,2.487,0.051,3.964,0.156,4.43c0.311,1.813,1.193,2.721,2.648,2.721
		c1.816,0,2.725-1.65,2.725-4.951v-3.79c0-1.65,0.793-2.476,2.377-2.476c1.688,0,2.531,1.246,2.531,3.738v0.39v4.44
		C312.307,227.125,309.658,229.617,304.467,229.617z M295.82,214.116v-5.53c-1.137,1.039-2.34,1.766-3.607,2.181
		c-1.268,0.417-3.529,0.779-6.787,1.091c-5.896,0.572-8.844,2.753-8.844,6.543c0,1.975,0.713,3.532,2.141,4.674
		c1.428,1.143,3.361,1.714,5.803,1.714c3.479,0,6.219-0.947,8.219-2.844C294.742,220.05,295.768,217.44,295.82,214.116z"/>
	<path fill="#1F1713" stroke="#1F1713" stroke-width="0.8088" stroke-miterlimit="10" d="M336.559,217.855v-4.985
		c0.051-2.129,0.986-3.193,2.805-3.193c1.816,0,2.727,1.195,2.727,3.583c0,5.66-0.723,9.607-2.166,11.84
		c-1.961,3.012-5.184,4.518-9.67,4.518c-4.127,0-7.066-1.324-8.82-3.973c-1.289-1.921-1.934-5.192-1.934-9.814v-18.694
		c0-1.091-0.504-1.636-1.514-1.636h-2.549c-0.85,0-1.555-0.273-2.111-0.818c-0.557-0.545-0.836-1.208-0.836-1.986
		c0-0.727,0.271-1.375,0.818-1.947c0.545-0.571,1.154-0.857,1.83-0.857h3.037c0.883,0,1.324-0.493,1.324-1.48v-8.023
		c0-1.973,1.014-2.96,3.037-2.96c1.871,0,2.805,0.987,2.805,2.96v8.334c0,0.779,0.469,1.168,1.402,1.168h8.49
		c1.973,0,2.961,0.909,2.961,2.726c0,1.922-1.066,2.882-3.193,2.882h-8.568c-0.729,0-1.092,0.545-1.092,1.636v19.161
		c0,5.453,1.816,8.18,5.451,8.18C334.479,224.477,336.4,222.27,336.559,217.855z"/>
</g>
<g>
	<path fill="#1F1713" stroke="#1F1713" stroke-width="0.8088" stroke-miterlimit="10" d="M214.273,216.799l6.332-11.422h4.221
		l-7.945,14.029l9.994,10.491h-5.525l-6.58-7.077c-1.779,2.4-3.734,4.314-5.865,5.742c-2.133,1.428-4.729,2.142-7.791,2.142
		c-1.863,0-3.611-0.301-5.246-0.9c-1.635-0.599-3.053-1.458-4.252-2.576c-1.201-1.117-2.152-2.461-2.855-4.034
		c-0.705-1.572-1.057-3.331-1.057-5.277c0-1.696,0.289-3.186,0.869-4.469s1.336-2.422,2.268-3.415c0.93-0.993,1.996-1.893,3.195-2.7
		c1.201-0.807,2.441-1.603,3.725-2.39c-0.619-0.745-1.252-1.521-1.893-2.328c-0.643-0.807-1.211-1.645-1.707-2.514
		s-0.91-1.769-1.242-2.7s-0.496-1.894-0.496-2.887c0-1.572,0.299-2.98,0.9-4.221c0.6-1.242,1.406-2.286,2.42-3.135
		c1.014-0.848,2.193-1.5,3.539-1.956c1.344-0.455,2.742-0.683,4.191-0.683c1.281,0,2.523,0.228,3.725,0.683
		c1.199,0.456,2.266,1.086,3.195,1.893c0.932,0.807,1.666,1.78,2.205,2.918c0.537,1.139,0.807,2.411,0.807,3.817
		c0,1.574-0.279,2.939-0.838,4.097c-0.559,1.159-1.305,2.194-2.234,3.104c-0.932,0.911-1.977,1.718-3.135,2.421
		c-1.16,0.705-2.359,1.387-3.602,2.049L214.273,216.799z M200.119,207.549c-0.992,0.581-1.977,1.201-2.949,1.863
		s-1.861,1.396-2.668,2.203c-0.807,0.808-1.459,1.718-1.955,2.731c-0.498,1.015-0.746,2.163-0.746,3.445
		c0,1.407,0.258,2.67,0.777,3.787c0.516,1.117,1.219,2.079,2.109,2.887c0.891,0.807,1.945,1.428,3.166,1.862
		s2.514,0.651,3.881,0.651c1.158,0,2.244-0.187,3.258-0.559s1.955-0.869,2.824-1.49c0.869-0.62,1.678-1.334,2.422-2.142
		c0.744-0.807,1.428-1.665,2.049-2.576L200.119,207.549z M203.162,188.243c-1.863,0-3.436,0.569-4.719,1.708
		c-1.283,1.139-1.924,2.638-1.924,4.5c0,0.745,0.154,1.511,0.465,2.297c0.311,0.787,0.703,1.552,1.18,2.297
		c0.475,0.745,0.994,1.449,1.553,2.11c0.559,0.663,1.064,1.263,1.52,1.8c0.869-0.455,1.779-0.951,2.732-1.49
		c0.951-0.537,1.82-1.158,2.607-1.862c0.785-0.703,1.438-1.5,1.955-2.39c0.518-0.889,0.775-1.914,0.775-3.073
		c0-1.738-0.58-3.155-1.738-4.252C206.41,188.792,204.939,188.243,203.162,188.243z"/>
</g>
<g>
	<path fill="#211915" d="M130.428,259.643c0-0.275,0.098-0.509,0.289-0.701c0.193-0.193,0.426-0.289,0.701-0.289
		s0.51,0.096,0.701,0.289c0.193,0.192,0.289,0.426,0.289,0.701s-0.096,0.509-0.289,0.701c-0.191,0.192-0.426,0.289-0.701,0.289
		s-0.508-0.097-0.701-0.289C130.525,260.151,130.428,259.918,130.428,259.643z"/>
	<path fill="#211915" d="M141.465,245.903h1.361v6.437h8.17v-6.437h1.361v14.605h-1.361v-6.932h-8.17v6.932h-1.361V245.903z"/>
	<path fill="#211915" d="M168.779,256.507c0,0.468,0.002,0.887,0.01,1.258c0.006,0.372,0.018,0.716,0.031,1.032
		s0.031,0.611,0.051,0.887c0.021,0.275,0.053,0.55,0.094,0.825h-1.156c-0.082-0.468-0.123-0.983-0.123-1.547h-0.041
		c-0.357,0.618-0.803,1.072-1.332,1.361s-1.199,0.433-2.01,0.433c-0.414,0-0.818-0.051-1.219-0.154
		c-0.398-0.104-0.756-0.269-1.072-0.495s-0.574-0.519-0.773-0.877c-0.199-0.357-0.299-0.79-0.299-1.3
		c0-0.729,0.186-1.306,0.557-1.732c0.371-0.426,0.828-0.746,1.373-0.959c0.543-0.214,1.119-0.351,1.732-0.413
		c0.611-0.062,1.15-0.093,1.619-0.093h1.443v-0.577c0-0.825-0.254-1.417-0.764-1.774c-0.508-0.357-1.148-0.536-1.918-0.536
		c-1.1,0-2.07,0.357-2.908,1.072l-0.723-0.846c0.455-0.44,1.018-0.773,1.691-1.001c0.674-0.227,1.32-0.34,1.939-0.34
		c1.156,0,2.076,0.271,2.766,0.814c0.688,0.544,1.031,1.421,1.031,2.631V256.507z M166.303,255.723
		c-0.523,0-1.027,0.034-1.516,0.104c-0.488,0.068-0.928,0.186-1.32,0.351s-0.705,0.385-0.939,0.66s-0.35,0.619-0.35,1.031
		c0,0.289,0.064,0.547,0.195,0.773c0.131,0.228,0.299,0.413,0.506,0.558c0.205,0.144,0.436,0.254,0.691,0.33
		c0.254,0.075,0.512,0.113,0.773,0.113c0.66,0,1.203-0.097,1.629-0.289s0.768-0.443,1.021-0.753s0.43-0.66,0.525-1.052
		c0.098-0.393,0.145-0.787,0.145-1.187v-0.64H166.303z"/>
	<path fill="#211915" d="M177.443,253.66c0-0.179-0.008-0.396-0.021-0.65c-0.014-0.254-0.023-0.512-0.031-0.773
		c-0.006-0.261-0.018-0.506-0.031-0.732s-0.02-0.402-0.02-0.526h1.238c0.014,0.358,0.023,0.702,0.031,1.032
		c0.006,0.33,0.023,0.543,0.051,0.639h0.062c0.246-0.522,0.66-0.973,1.236-1.351c0.578-0.378,1.252-0.567,2.021-0.567
		c0.744,0,1.348,0.117,1.816,0.351c0.467,0.234,0.836,0.54,1.104,0.918c0.268,0.379,0.453,0.814,0.557,1.31s0.154,1.005,0.154,1.527
		v5.673h-1.236v-5.611c0-0.385-0.035-0.76-0.104-1.124s-0.189-0.691-0.361-0.98c-0.172-0.288-0.412-0.519-0.723-0.69
		c-0.309-0.172-0.711-0.258-1.207-0.258c-0.453,0-0.883,0.079-1.289,0.237c-0.404,0.158-0.756,0.398-1.051,0.722
		c-0.297,0.323-0.531,0.729-0.701,1.217c-0.174,0.488-0.26,1.062-0.26,1.723v4.766h-1.236V253.66z"/>
	<path fill="#211915" d="M202.609,258.838h-0.041c-0.191,0.33-0.434,0.615-0.721,0.856c-0.289,0.24-0.602,0.439-0.939,0.598
		s-0.691,0.275-1.062,0.351c-0.371,0.076-0.736,0.113-1.094,0.113c-0.729,0-1.402-0.123-2.021-0.371
		c-0.619-0.247-1.148-0.595-1.588-1.042c-0.441-0.446-0.785-0.976-1.031-1.588c-0.248-0.612-0.371-1.282-0.371-2.012
		c0-0.729,0.123-1.399,0.371-2.011c0.246-0.612,0.59-1.142,1.031-1.589c0.439-0.447,0.969-0.794,1.588-1.042
		c0.619-0.247,1.293-0.371,2.021-0.371c0.357,0,0.723,0.038,1.094,0.113c0.371,0.076,0.725,0.192,1.062,0.351
		s0.65,0.358,0.939,0.599c0.287,0.24,0.529,0.525,0.721,0.855h0.041v-7.735h1.238v15.596h-1.238V258.838z M202.734,255.743
		c0-0.536-0.104-1.042-0.311-1.516c-0.205-0.475-0.488-0.888-0.846-1.238s-0.777-0.629-1.258-0.836
		c-0.482-0.206-1.004-0.309-1.568-0.309c-0.576,0-1.1,0.103-1.566,0.309c-0.469,0.207-0.867,0.485-1.197,0.836
		s-0.582,0.764-0.754,1.238c-0.172,0.474-0.258,0.979-0.258,1.516s0.086,1.042,0.258,1.517s0.424,0.887,0.754,1.237
		s0.729,0.63,1.197,0.836c0.467,0.206,0.99,0.31,1.566,0.31c0.564,0,1.086-0.104,1.568-0.31c0.48-0.206,0.9-0.485,1.258-0.836
		s0.641-0.763,0.846-1.237C202.631,256.785,202.734,256.279,202.734,255.743z"/>
	<path fill="#211915" d="M211.977,244.913h1.238v7.735h0.041c0.191-0.33,0.434-0.615,0.721-0.855c0.289-0.24,0.602-0.44,0.939-0.599
		s0.691-0.274,1.062-0.351c0.371-0.075,0.736-0.113,1.094-0.113c0.729,0,1.398,0.124,2.012,0.371
		c0.611,0.248,1.141,0.595,1.588,1.042s0.795,0.977,1.041,1.589c0.248,0.611,0.371,1.282,0.371,2.011
		c0,0.729-0.123,1.399-0.371,2.012c-0.246,0.612-0.594,1.142-1.041,1.588c-0.447,0.447-0.977,0.795-1.588,1.042
		c-0.613,0.248-1.283,0.371-2.012,0.371c-0.357,0-0.723-0.037-1.094-0.113c-0.371-0.075-0.725-0.192-1.062-0.351
		s-0.65-0.357-0.939-0.598c-0.287-0.241-0.529-0.526-0.721-0.856h-0.041v1.671h-1.238V244.913z M213.09,255.743
		c0,0.536,0.104,1.042,0.311,1.517c0.205,0.475,0.488,0.887,0.846,1.237s0.777,0.63,1.258,0.836s1.004,0.31,1.568,0.31
		c0.578,0,1.1-0.104,1.568-0.31c0.467-0.206,0.865-0.485,1.195-0.836s0.582-0.763,0.754-1.237s0.258-0.98,0.258-1.517
		s-0.086-1.042-0.258-1.516c-0.172-0.475-0.424-0.888-0.754-1.238s-0.729-0.629-1.195-0.836c-0.469-0.206-0.99-0.309-1.568-0.309
		c-0.564,0-1.088,0.103-1.568,0.309c-0.48,0.207-0.9,0.485-1.258,0.836s-0.641,0.764-0.846,1.238
		C213.193,254.701,213.09,255.207,213.09,255.743z"/>
	<path fill="#211915" d="M237.619,256.507c0,0.468,0.002,0.887,0.01,1.258c0.006,0.372,0.018,0.716,0.031,1.032
		s0.031,0.611,0.051,0.887c0.021,0.275,0.053,0.55,0.094,0.825h-1.156c-0.082-0.468-0.123-0.983-0.123-1.547h-0.041
		c-0.357,0.618-0.803,1.072-1.332,1.361s-1.199,0.433-2.01,0.433c-0.414,0-0.818-0.051-1.219-0.154
		c-0.398-0.104-0.756-0.269-1.072-0.495s-0.574-0.519-0.773-0.877c-0.199-0.357-0.299-0.79-0.299-1.3
		c0-0.729,0.186-1.306,0.557-1.732c0.371-0.426,0.828-0.746,1.373-0.959c0.543-0.214,1.119-0.351,1.732-0.413
		c0.611-0.062,1.15-0.093,1.619-0.093h1.443v-0.577c0-0.825-0.254-1.417-0.764-1.774c-0.508-0.357-1.148-0.536-1.918-0.536
		c-1.1,0-2.07,0.357-2.908,1.072l-0.723-0.846c0.455-0.44,1.018-0.773,1.691-1.001c0.674-0.227,1.32-0.34,1.939-0.34
		c1.156,0,2.076,0.271,2.766,0.814c0.688,0.544,1.031,1.421,1.031,2.631V256.507z M235.143,255.723
		c-0.523,0-1.027,0.034-1.516,0.104c-0.488,0.068-0.928,0.186-1.32,0.351s-0.705,0.385-0.939,0.66s-0.35,0.619-0.35,1.031
		c0,0.289,0.064,0.547,0.195,0.773c0.131,0.228,0.299,0.413,0.506,0.558c0.205,0.144,0.436,0.254,0.691,0.33
		c0.254,0.075,0.512,0.113,0.773,0.113c0.66,0,1.203-0.097,1.629-0.289s0.768-0.443,1.021-0.753s0.43-0.66,0.525-1.052
		c0.098-0.393,0.145-0.787,0.145-1.187v-0.64H235.143z"/>
	<path fill="#211915" d="M255.855,259.89c0,1.183-0.172,2.139-0.516,2.868c-0.344,0.729-0.773,1.292-1.291,1.691
		c-0.516,0.398-1.068,0.667-1.66,0.805c-0.592,0.137-1.127,0.206-1.609,0.206c-0.48,0-0.951-0.045-1.412-0.134
		c-0.461-0.09-0.898-0.221-1.311-0.393s-0.787-0.382-1.125-0.629c-0.336-0.248-0.629-0.529-0.875-0.846l0.969-0.908
		c0.439,0.619,0.99,1.073,1.65,1.362c0.66,0.288,1.361,0.433,2.104,0.433c0.633,0,1.166-0.082,1.6-0.247s0.791-0.382,1.072-0.65
		c0.281-0.268,0.502-0.563,0.66-0.887s0.275-0.646,0.352-0.97c0.074-0.323,0.119-0.629,0.133-0.918s0.021-0.522,0.021-0.701v-1.32
		h-0.041c-0.357,0.577-0.844,1.031-1.455,1.361s-1.33,0.495-2.156,0.495c-0.701,0-1.361-0.127-1.98-0.382
		c-0.617-0.254-1.158-0.604-1.619-1.052s-0.824-0.966-1.094-1.558c-0.268-0.591-0.402-1.224-0.402-1.898
		c0-0.673,0.135-1.306,0.402-1.897c0.27-0.591,0.633-1.107,1.094-1.547c0.461-0.44,1.002-0.791,1.619-1.053
		c0.619-0.261,1.279-0.392,1.98-0.392c0.826,0,1.545,0.165,2.156,0.495s1.098,0.784,1.455,1.361h0.041v-1.609h1.238V259.89z
		 M254.658,255.619c0-0.522-0.1-1.014-0.299-1.475s-0.469-0.859-0.805-1.196c-0.338-0.337-0.736-0.605-1.197-0.805
		s-0.951-0.299-1.475-0.299s-1.014,0.1-1.475,0.299s-0.859,0.468-1.197,0.805c-0.336,0.337-0.605,0.735-0.805,1.196
		s-0.299,0.952-0.299,1.475c0,0.523,0.1,1.015,0.299,1.476s0.469,0.859,0.805,1.196c0.338,0.337,0.736,0.605,1.197,0.805
		s0.951,0.299,1.475,0.299s1.014-0.1,1.475-0.299s0.859-0.468,1.197-0.805c0.336-0.337,0.605-0.735,0.805-1.196
		S254.658,256.143,254.658,255.619z"/>
	<path fill="#211915" d="M264.271,258.074c0.26,0.509,0.646,0.897,1.154,1.166c0.51,0.268,1.045,0.402,1.609,0.402
		c0.262,0,0.523-0.041,0.785-0.124c0.26-0.082,0.494-0.199,0.701-0.351c0.205-0.151,0.373-0.333,0.504-0.547
		c0.131-0.213,0.197-0.457,0.197-0.732c0-0.439-0.143-0.77-0.424-0.99c-0.281-0.22-0.629-0.392-1.041-0.516s-0.867-0.23-1.361-0.319
		c-0.496-0.09-0.949-0.228-1.361-0.413c-0.414-0.186-0.762-0.443-1.043-0.773s-0.422-0.798-0.422-1.403
		c0-0.467,0.096-0.873,0.289-1.217c0.191-0.344,0.443-0.629,0.752-0.856c0.311-0.227,0.656-0.395,1.041-0.505
		c0.387-0.11,0.777-0.165,1.178-0.165c0.783,0,1.461,0.145,2.031,0.434c0.57,0.288,1.014,0.742,1.33,1.361l-1.113,0.66
		c-0.234-0.44-0.527-0.773-0.877-1.001c-0.352-0.227-0.809-0.34-1.371-0.34c-0.221,0-0.451,0.034-0.691,0.103
		c-0.242,0.069-0.457,0.165-0.65,0.289s-0.354,0.282-0.484,0.475s-0.197,0.412-0.197,0.66c0,0.427,0.143,0.742,0.424,0.949
		c0.281,0.206,0.629,0.368,1.041,0.484c0.414,0.117,0.867,0.217,1.361,0.299c0.496,0.083,0.949,0.217,1.363,0.402
		c0.412,0.186,0.76,0.454,1.041,0.805s0.424,0.85,0.424,1.496c0,0.495-0.094,0.925-0.279,1.289s-0.441,0.671-0.764,0.918
		c-0.322,0.248-0.691,0.434-1.104,0.557c-0.412,0.124-0.846,0.186-1.299,0.186c-0.826,0-1.578-0.158-2.26-0.474
		c-0.682-0.316-1.207-0.805-1.578-1.465L264.271,258.074z"/>
	<path fill="#211915" d="M278.443,259.643c0-0.275,0.096-0.509,0.289-0.701c0.191-0.193,0.426-0.289,0.701-0.289
		s0.508,0.096,0.701,0.289c0.193,0.192,0.289,0.426,0.289,0.701s-0.096,0.509-0.289,0.701s-0.426,0.289-0.701,0.289
		s-0.51-0.097-0.701-0.289C278.539,260.151,278.443,259.918,278.443,259.643z"/>
</g>
</svg>
